<?xml version="1.0" encoding="UTF-8" standalone="no"?>
<!-- Generator: Adobe Illustrator 24.2.3, SVG Export Plug-In . SVG Version: 6.00 Build 0)  -->

<svg
   version="1.1"
   id="Layer_1"
   x="0px"
   y="0px"
   viewBox="0 0 122.4 221.6"
   style="enable-background:new 0 0 122.4 221.6;"
   xml:space="preserve"
   sodipodi:docname="dark.svg"
   inkscape:version="1.2.2 (b0a8486541, 2022-12-01)"
   xmlns:inkscape="http://www.inkscape.org/namespaces/inkscape"
   xmlns:sodipodi="http://sodipodi.sourceforge.net/DTD/sodipodi-0.dtd"
   xmlns="http://www.w3.org/2000/svg"
   xmlns:svg="http://www.w3.org/2000/svg"><defs
   id="defs27" /><sodipodi:namedview
   id="namedview25"
   pagecolor="#ffffff"
   bordercolor="#000000"
   borderopacity="0.25"
   inkscape:showpageshadow="2"
   inkscape:pageopacity="0.0"
   inkscape:pagecheckerboard="0"
   inkscape:deskcolor="#d1d1d1"
   showgrid="false"
   inkscape:zoom="1.8907942"
   inkscape:cx="-92.553702"
   inkscape:cy="56.589978"
   inkscape:window-width="1920"
   inkscape:window-height="1008"
   inkscape:window-x="0"
   inkscape:window-y="0"
   inkscape:window-maximized="1"
   inkscape:current-layer="Layer_1" />
<style
   type="text/css"
   id="style18">
	.st0{fill:#F8BD7A;}
	.st1{fill:#262B40;}
</style>
<path
   class="st0"
   d="M914.3,109.3L912,109c0.2,1.2,0.3,2.5,0.5,3.8C913,111.6,913.6,110.4,914.3,109.3z"
   id="path20" />
<path
   class="st1"
   d="M 37.680064,120.83497 60.335068,220.47368 103.51648,72.185193 121.61565,3.1193892 C 118.41412,3.3716942 125.95263,-2.7413343 112,3.9 112,3.8 112.95002,3.5812394 113.05002,3.4812394 113.05002,3.3812394 112.1,3.5 112.2,3.4 v 0 c 0,-0.1 7.95377,1.2241988 4.739,1.5331109 3.76,-0.426706 6.39632,-5.20291619 -3.25913,-2.5636318 0,-0.2 -1.07987,0.030521 -0.97987,-0.069479 -0.1,-0.2 0,-0.4 0.1,-0.5 0.1,-0.1 0.2,-0.2 0.3,-0.2 V 1.3 c 0,-0.2 0.1,-0.3 0.2,-0.4 v 0 -0.1 c 0,-0.1 0,-0.1 0.1,-0.1 v 0 -0.1 c 0,-0.2 -45.371913,192.6497 -48.686767,157.21103 L 12.973648,1.4092805 2.452728,1.8277402 Z"
   id="path22"
   sodipodi:nodetypes="ccccccsscccscsscsscscccc" />
</svg>
