<?xml version="1.0" standalone="no"?>
<!DOCTYPE svg PUBLIC "-//W3C//DTD SVG 20010904//EN"
 "http://www.w3.org/TR/2001/REC-SVG-20010904/DTD/svg10.dtd">
<svg version="1.0" xmlns="http://www.w3.org/2000/svg"
 width="470.000000pt" height="323.000000pt" viewBox="0 0 470.000000 323.000000"
 preserveAspectRatio="xMidYMid meet">

<g transform="translate(0.000000,323.000000) scale(0.100000,-0.100000)"
fill="#000000" stroke="none">
<path d="M2751 2049 l-84 -39 -32 20 c-18 11 -35 20 -39 20 -9 0 -166 -192
-166 -203 0 -5 15 -27 34 -50 46 -57 62 -92 75 -160 28 -151 -52 -298 -198
-365 -44 -21 -72 -26 -132 -27 -67 0 -84 4 -150 37 -40 20 -79 33 -85 30 -19
-12 -164 -185 -164 -196 0 -6 16 -22 36 -36 74 -52 72 -45 49 -164 -9 -44 -12
-83 -8 -87 13 -13 218 -67 225 -60 5 4 23 45 42 91 40 100 49 106 162 116 l80
7 59 -82 c32 -44 61 -81 64 -81 13 0 193 115 198 126 2 7 -12 47 -31 90 -20
42 -36 83 -36 91 0 20 91 142 111 148 9 3 56 -1 105 -9 49 -8 92 -11 95 -8 4
4 11 27 17 52 7 25 20 75 31 111 l19 66 -95 38 c-107 42 -107 42 -116 157 -8
88 -11 81 88 154 36 26 65 51 65 54 0 12 -116 194 -125 196 -6 2 -48 -15 -94
-37z"/>
<path d="M720 520 c-17 -17 -20 -33 -20 -123 0 -57 2 -106 5 -109 3 -3 36 1
73 8 89 17 92 17 92 -5 0 -22 -8 -25 -93 -40 -72 -13 -77 -16 -77 -46 0 -24 1
-24 123 -27 67 -2 125 -2 130 0 8 4 10 236 2 244 -3 3 -36 -1 -72 -9 -72 -15
-93 -12 -93 11 0 17 11 21 103 37 72 12 82 24 47 59 -17 17 -33 20 -110 20
-77 0 -93 -3 -110 -20z"/>
<path d="M1035 520 c-16 -18 -19 -40 -19 -175 0 -85 2 -156 4 -159 3 -2 23 -6
45 -8 l40 -3 3 56 c3 54 4 57 33 61 16 3 31 2 34 0 3 -3 5 -29 5 -58 l0 -52
41 -4 c22 -2 42 -2 45 1 2 2 4 77 4 166 0 200 3 195 -127 195 -78 0 -92 -3
-108 -20z m143 -97 c-2 -23 -8 -29 -35 -31 -31 -3 -33 -1 -33 27 0 29 3 31 36
31 33 0 35 -2 32 -27z"/>
<path d="M1317 534 c-4 -4 -7 -85 -7 -181 l0 -173 130 0 130 0 0 65 c0 70 0
70 -59 59 -17 -4 -31 -13 -31 -20 0 -9 -12 -14 -35 -14 l-34 0 -3 133 -3 132
-40 3 c-23 2 -44 0 -48 -4z"/>
<path d="M1637 522 c-14 -16 -17 -42 -17 -175 l0 -157 45 0 45 0 0 45 c0 29 4
45 13 45 6 0 22 3 35 6 21 6 22 3 22 -45 l0 -51 45 0 45 0 0 105 0 105 -45 -7
c-25 -3 -45 -3 -45 0 0 4 16 31 35 62 55 85 55 85 -3 85 -46 0 -53 -3 -69 -30
-22 -37 -31 -38 -35 -2 -4 34 -45 43 -71 14z"/>
<path d="M1917 533 c-4 -3 -7 -84 -7 -180 l0 -173 48 0 47 0 -3 47 c-5 77 10
157 31 161 15 3 17 -7 17 -102 l0 -106 45 0 44 0 3 118 c3 113 4 117 26 120
22 3 22 2 22 -117 l0 -121 45 0 45 0 0 160 c0 147 -2 162 -20 180 -25 25 -114
28 -147 5 -18 -13 -22 -13 -33 0 -9 11 -33 15 -85 15 -39 0 -75 -3 -78 -7z"/>
<path d="M2354 532 c-28 -18 -34 -56 -34 -200 0 -82 2 -151 4 -153 3 -3 23 -3
45 -1 41 4 41 4 41 46 0 52 8 63 45 67 30 4 30 4 33 -54 l3 -57 44 0 45 0 0
164 c0 200 3 196 -130 196 -47 0 -90 -4 -96 -8z m131 -112 c0 -21 -5 -26 -33
-28 -34 -3 -50 14 -38 44 4 10 16 14 38 12 28 -2 33 -7 33 -28z"/>
<path d="M2620 361 c0 -99 3 -182 8 -184 4 -2 24 -2 45 0 l37 5 0 99 c0 87 2
99 19 109 11 5 29 10 40 10 20 0 21 -5 21 -110 l0 -110 45 0 45 0 0 160 c0
206 4 200 -150 200 l-110 0 0 -179z"/>
<path d="M3070 362 c0 -98 2 -181 4 -183 3 -3 23 -3 45 -1 l41 4 0 179 0 179
-45 0 -45 0 0 -178z"/>
<path d="M3200 361 c0 -99 3 -182 8 -184 4 -2 24 -2 45 0 l37 5 0 99 c0 87 2
99 19 109 11 5 29 10 41 10 21 0 21 -3 18 -110 -2 -61 1 -111 5 -113 5 -1 26
-1 48 1 l39 4 0 159 c0 205 4 199 -150 199 l-110 0 0 -179z"/>
<path d="M3522 524 c-21 -15 -22 -21 -22 -179 0 -90 3 -165 8 -167 4 -2 62 -2
130 0 l123 4 -3 71 -3 72 -30 -4 c-40 -4 -65 -18 -65 -36 0 -10 -11 -15 -35
-15 l-35 0 0 90 0 90 31 0 c18 0 37 -7 44 -16 10 -14 19 -15 51 -7 37 9 39 11
38 48 -2 55 -21 65 -124 65 -61 0 -92 -4 -108 -16z"/>
<path d="M3807 234 c-8 -8 -9 -48 -2 -56 3 -3 17 -3 31 0 20 4 25 10 22 31 -3
26 -35 41 -51 25z"/>
</g>
</svg>
